name C:\Users\u0101727\Documents\MyRepositories\upper-imu-dc\Results\main_tracking\Case_42\FLX01_angularVelocities_bodyFrame.mot
datacolumns 4
datarows 70
range 2.01000000 2.70000000
endheader 
time	radius_imu_x	radius_imu_y	radius_imu_z	
          2.01000000	         -1.35312509	          0.22523544	          0.12447632	
          2.02000000	         -1.34152506	          0.24685120	          0.08855659	
          2.03000000	         -1.32890948	          0.26564289	          0.05336488	
          2.04000000	         -1.31524521	          0.28110366	          0.01906221	
          2.05000000	         -1.30052499	          0.29287721	         -0.01421186	
          2.06000000	         -1.28477360	          0.30078828	         -0.04634303	
          2.07000000	         -1.26805160	          0.30487655	         -0.07724544	
          2.08000000	         -1.25045556	          0.30542432	         -0.10686387	
          2.09000000	         -1.23211393	          0.30296666	         -0.13517458	
          2.10000000	         -1.21317855	          0.29827403	         -0.16218427	
          2.11000000	         -1.19381244	          0.29230121	         -0.18792705	
          2.12000000	         -1.17417541	          0.28610234	         -0.21245916	
          2.13000000	         -1.15441026	          0.28072098	         -0.23585237	
          2.14000000	         -1.13463280	          0.27707344	         -0.25818694	
          2.15000000	         -1.11492805	          0.27585260	         -0.27954559	
          2.16000000	         -1.09535286	          0.27747675	         -0.30000910	
          2.17000000	         -1.07594209	          0.28208926	         -0.31965326	
          2.18000000	         -1.05671501	          0.28959533	         -0.33854645	
          2.19000000	         -1.03767936	          0.29971445	         -0.35674720	
          2.20000000	         -1.01883312	          0.31203204	         -0.37430185	
          2.21000000	         -1.00016535	          0.32604420	         -0.39124273	
          2.22000000	         -0.98165781	          0.34120091	         -0.40758758	
          2.23000000	         -0.96328846	          0.35695562	         -0.42334060	
          2.24000000	         -0.94503638	          0.37281996	         -0.43849515	
          2.25000000	         -0.92688677	          0.38841233	         -0.45303740	
          2.26000000	         -0.90883458	          0.40348779	         -0.46695015	
          2.27000000	         -0.89088576	          0.41794298	         -0.48021610	
          2.28000000	         -0.87305608	          0.43179493	         -0.49281998	
          2.29000000	         -0.85536800	          0.44513782	         -0.50474942	
          2.30000000	         -0.83784647	          0.45808582	         -0.51599465	
          2.31000000	         -0.82051450	          0.47071273	         -0.52654738	
          2.32000000	         -0.80338945	          0.48299946	         -0.53639933	
          2.33000000	         -0.78648074	          0.49480155	         -0.54554086	
          2.34000000	         -0.76978967	          0.50584739	         -0.55396024	
          2.35000000	         -0.75331154	          0.51577017	         -0.56164383	
          2.36000000	         -0.73703934	          0.52416373	         -0.56857730	
          2.37000000	         -0.72096798	          0.53064652	         -0.57474774	
          2.38000000	         -0.70509826	          0.53492013	         -0.58014626	
          2.39000000	         -0.68943969	          0.53681353	         -0.58477038	
          2.40000000	         -0.67401178	          0.53630550	         -0.58862589	
          2.41000000	         -0.65884345	          0.53352327	         -0.59172754	
          2.42000000	         -0.64397109	          0.52872128	         -0.59409893	
          2.43000000	         -0.62943594	          0.52224712	         -0.59577169	
          2.44000000	         -0.61528119	          0.51450011	         -0.59678447	
          2.45000000	         -0.60154925	          0.50588637	         -0.59718200	
          2.46000000	         -0.58827922	          0.49677416	         -0.59701413	
          2.47000000	         -0.57550455	          0.48745381	         -0.59633486	
          2.48000000	         -0.56325080	          0.47810884	         -0.59520117	
          2.49000000	         -0.55153369	          0.46880565	         -0.59367143	
          2.50000000	         -0.54035770	          0.45950600	         -0.59180352	
          2.51000000	         -0.52971543	          0.45009905	         -0.58965282	
          2.52000000	         -0.51958763	          0.44044329	         -0.58727024	
          2.53000000	         -0.50994415	          0.43040885	         -0.58470066	
          2.54000000	         -0.50074612	          0.41991352	         -0.58198204	
          2.55000000	         -0.49194930	          0.40894759	         -0.57914540	
          2.56000000	         -0.48350824	          0.39758481	         -0.57621581	
          2.57000000	         -0.47538031	          0.38597953	         -0.57321408	
          2.58000000	         -0.46752913	          0.37435250	         -0.57015888	
          2.59000000	         -0.45992683	          0.36296859	         -0.56706875	
          2.60000000	         -0.45255512	          0.35210893	         -0.56396397	
          2.61000000	         -0.44540528	          0.34204021	         -0.56086753	
          2.62000000	         -0.43847670	          0.33298510	         -0.55780532	
          2.63000000	         -0.43177397	          0.32509758	         -0.55480506	
          2.64000000	         -0.42530277	          0.31844712	         -0.55189447	
          2.65000000	         -0.41906562	          0.31301440	         -0.54909902	
          2.66000000	         -0.41305813	          0.30869879	         -0.54643996	
          2.67000000	         -0.40726657	          0.30533492	         -0.54393285	
          2.68000000	         -0.40166666	          0.30271313	         -0.54158651	
          2.69000000	         -0.39622352	          0.30059901	         -0.53940249	
          2.70000000	         -0.39089305	          0.29875027	         -0.53737475	
